<?xml version="1.0" encoding="utf-8"?>
<!-- Generator: Adobe Illustrator 16.0.3, SVG Export Plug-In . SVG Version: 6.00 Build 0)  -->
<!DOCTYPE svg PUBLIC "-//W3C//DTD SVG 1.1//EN" "http://www.w3.org/Graphics/SVG/1.1/DTD/svg11.dtd">
<svg version="1.1" id="Capa_1" xmlns="http://www.w3.org/2000/svg" xmlns:xlink="http://www.w3.org/1999/xlink" x="0px" y="0px"
	 width="612px" height="612px" viewBox="0 0 612 612" enable-background="new 0 0 612 612" xml:space="preserve">
<g>
	<g>
		<g>
			<path d="M305.979,0c168.728,0,306.008,137.274,306.019,306.006C611.997,474.73,474.728,612,306.003,612s-306-137.27-306-305.994
				S137.26,0,305.979,0z M306.003,583.614c153.067,0,277.607-124.541,277.607-277.608C583.6,152.926,459.059,28.392,305.991,28.392
				h-0.013c-153.066,0-277.598,124.54-277.598,277.614C28.383,459.074,152.923,583.614,306.003,583.614z"/>
			<g>
				<path d="M305.991,165.654l105.13,90.591c5.938,5.114,6.603,14.073,1.486,20.012c-5.121,5.938-14.08,6.599-20.012,1.488
					l-86.604-74.627l-86.594,74.627c-5.935,5.108-14.902,4.45-20.014-1.488c-5.114-5.938-4.45-14.896,1.487-20.012L305.991,165.654z
					"/>
				<path d="M305.991,170.196c7.84,0,14.192,6.353,14.192,14.19v243.225c0,7.84-6.353,14.192-14.192,14.192
					s-14.192-6.353-14.192-14.192V184.389C291.799,176.549,298.151,170.196,305.991,170.196z"/>
			</g>
		</g>
	</g>
</g>
</svg>
